<svg xmlns="http://www.w3.org/2000/svg" xmlns:xlink="http://www.w3.org/1999/xlink" preserveAspectRatio="xMidYMid" width="125" height="24" viewBox="0 0 125 24">
  <defs>
    <style>
      .cls-1 {
        fill: #fff;
        fill-rule: evenodd;
      }
    </style>
  </defs>
  <path d="M124.931,8.526 L124.924,8.591 C124.532,12.039 122.450,14.327 119.531,15.519 L123.972,23.381 L116.815,23.381 L113.085,16.550 L110.366,16.550 L109.587,23.381 L103.386,23.381 L105.955,0.825 L116.538,0.825 C119.958,0.825 122.221,1.728 123.548,3.273 C124.711,4.563 125.185,6.303 124.931,8.526 ZM115.602,6.239 L111.541,6.239 L110.924,11.652 L115.017,11.652 C117.125,11.652 118.459,10.621 118.645,8.978 L118.653,8.913 C118.856,7.141 117.681,6.239 115.602,6.239 ZM91.532,6.142 L91.142,9.557 L101.883,9.557 L101.323,14.488 L90.580,14.488 L90.173,18.064 L102.192,18.064 L101.589,23.381 L83.430,23.381 L85.999,0.825 L103.997,0.825 L103.392,6.142 L91.532,6.142 ZM76.999,6.303 L75.056,23.381 L68.853,23.381 L70.799,6.303 L64.085,6.303 L64.708,0.825 L84.336,0.825 L83.714,6.303 L76.999,6.303 ZM63.148,8.591 C62.756,12.039 60.674,14.327 57.758,15.519 L62.201,23.381 L55.038,23.381 L51.308,16.550 L48.593,16.550 L47.814,23.381 L41.610,23.381 L44.180,0.825 L54.764,0.825 C58.182,0.825 60.447,1.728 61.772,3.273 C62.938,4.563 63.409,6.303 63.158,8.526 L63.148,8.591 ZM53.825,6.239 L49.767,6.239 L49.149,11.652 L53.242,11.652 C55.352,11.652 56.685,10.621 56.870,8.978 L56.879,8.913 C57.079,7.141 55.905,6.239 53.825,6.239 ZM40.770,9.790 C40.190,6.989 38.797,3.515 35.569,1.950 C32.906,0.745 30.544,0.964 28.116,1.455 L28.115,1.455 C28.115,1.455 27.769,1.459 28.046,1.293 C28.068,1.281 28.089,1.268 28.111,1.256 C28.115,1.255 28.116,1.253 28.119,1.252 C31.053,-0.276 34.288,-0.469 36.935,1.047 C39.853,2.717 41.363,6.070 41.288,9.816 C41.074,10.492 40.770,9.790 40.770,9.790 ZM34.728,3.244 C38.018,5.038 39.144,8.124 39.052,11.623 C38.975,14.698 37.836,17.809 36.164,20.492 C35.988,20.767 35.594,21.232 35.523,21.315 C35.068,21.691 34.584,22.037 34.078,22.350 C33.824,22.493 33.959,22.153 33.959,22.153 L33.957,22.153 C35.816,19.324 37.170,15.992 37.334,12.695 C37.499,9.357 36.585,6.250 33.420,4.503 C31.260,3.311 27.473,3.635 24.384,4.507 C24.377,4.509 24.370,4.510 24.365,4.512 C24.015,4.607 24.274,4.267 24.317,4.213 C24.571,3.934 24.834,3.668 25.104,3.415 C25.325,3.214 25.602,3.116 25.706,3.085 C28.563,2.368 32.347,1.944 34.728,3.244 ZM27.673,5.457 C29.435,5.287 31.367,5.495 32.852,6.415 C34.080,7.175 34.901,8.196 35.334,9.529 C35.748,10.796 35.742,12.184 35.542,13.502 C35.346,14.802 34.924,16.080 34.362,17.286 C33.751,18.603 32.960,19.874 32.066,21.042 C31.342,21.986 30.539,22.869 29.675,23.701 C29.383,23.955 29.013,23.992 29.009,23.980 L29.006,23.992 C28.638,24.008 28.274,23.999 27.914,23.969 C27.777,23.946 27.812,23.850 27.891,23.754 C27.956,23.693 28.016,23.630 28.081,23.569 C28.104,23.550 28.117,23.538 28.117,23.538 L28.113,23.538 C28.970,22.716 29.759,21.840 30.468,20.902 C31.279,19.833 31.995,18.674 32.556,17.475 C33.069,16.375 33.460,15.214 33.653,14.033 C33.848,12.844 33.876,11.584 33.524,10.436 C33.161,9.246 32.455,8.326 31.367,7.645 C30.056,6.825 28.345,6.664 26.789,6.836 C25.136,7.020 23.492,7.574 21.998,8.309 C21.991,8.312 21.985,8.312 21.979,8.317 C21.618,8.486 21.651,8.271 21.698,8.137 C21.749,8.032 21.796,7.926 21.846,7.821 C21.857,7.802 21.867,7.781 21.876,7.761 C21.996,7.525 22.120,7.294 22.249,7.064 C22.260,7.047 22.270,7.031 22.279,7.014 C23.961,6.219 25.810,5.634 27.673,5.457 ZM26.428,8.878 C27.704,8.684 29.125,8.767 30.225,9.415 C31.139,9.954 31.744,10.709 32.036,11.697 C32.312,12.626 32.262,13.640 32.071,14.593 C31.892,15.499 31.543,16.385 31.103,17.212 C30.644,18.067 30.063,18.893 29.416,19.634 C28.823,20.311 28.172,20.931 27.457,21.495 C26.820,21.999 26.134,22.452 25.412,22.842 C24.906,23.128 24.586,22.958 24.586,22.958 C24.282,22.784 23.999,22.584 23.724,22.375 C23.515,22.142 23.946,21.951 23.946,21.951 L23.946,21.951 C24.356,21.802 24.755,21.623 25.136,21.416 C25.698,21.114 26.231,20.762 26.727,20.370 C27.281,19.931 27.786,19.449 28.247,18.923 C28.753,18.346 29.202,17.707 29.558,17.041 C29.904,16.397 30.172,15.709 30.313,15.005 C30.460,14.264 30.499,13.475 30.286,12.753 C30.056,11.987 29.588,11.401 28.878,10.981 C28.020,10.477 26.918,10.413 25.927,10.563 C24.682,10.753 23.465,11.281 22.423,11.961 C21.760,12.395 21.144,12.899 20.589,13.453 C20.578,13.462 20.566,13.470 20.555,13.482 C20.329,13.701 20.298,13.249 20.296,13.116 C20.295,13.109 20.295,13.105 20.295,13.099 C20.330,12.732 20.382,12.361 20.450,11.990 C20.474,11.899 20.535,11.734 20.700,11.573 C21.090,11.255 21.498,10.953 21.924,10.676 C23.263,9.800 24.827,9.121 26.428,8.878 ZM8.148,6.303 L7.710,10.138 L18.291,10.138 L17.702,15.325 L7.120,15.325 L6.201,23.381 L0.001,23.381 L2.570,0.825 L20.471,0.825 L19.849,6.303 L8.148,6.303 ZM20.465,16.903 C20.552,16.587 20.658,16.308 20.807,15.999 C20.987,15.627 21.203,15.270 21.453,14.935 C21.991,14.214 22.680,13.579 23.448,13.079 C24.171,12.606 25.014,12.240 25.878,12.108 C26.567,12.003 27.334,12.047 27.928,12.398 C28.423,12.689 28.748,13.096 28.907,13.629 C29.055,14.131 29.027,14.678 28.924,15.193 C28.827,15.681 28.640,16.160 28.402,16.606 C28.153,17.069 27.841,17.513 27.492,17.913 C27.172,18.278 26.821,18.614 26.435,18.918 C26.091,19.190 25.719,19.435 25.331,19.645 C24.969,19.840 24.586,20.001 24.193,20.121 C23.817,20.236 23.438,20.310 23.047,20.332 C22.669,20.351 22.270,20.316 21.911,20.208 C21.844,20.187 21.778,20.162 21.713,20.136 C21.457,20.034 21.222,19.893 21.023,19.709 C20.711,19.422 20.510,19.056 20.404,18.657 C20.280,18.183 20.314,17.529 20.426,17.049 C20.438,16.998 20.453,16.952 20.465,16.903 ZM21.808,17.844 C21.879,18.112 22.015,18.357 22.223,18.548 C22.390,18.703 22.596,18.814 22.819,18.883 C23.058,18.956 23.326,18.979 23.578,18.965 C23.842,18.951 24.095,18.901 24.346,18.824 C24.612,18.744 24.868,18.636 25.111,18.505 C25.371,18.365 25.619,18.201 25.849,18.018 C26.108,17.814 26.343,17.591 26.556,17.345 C26.794,17.077 27.003,16.779 27.167,16.469 C27.328,16.169 27.453,15.850 27.520,15.522 C27.589,15.177 27.604,14.810 27.505,14.474 C27.400,14.117 27.182,13.844 26.851,13.649 C26.451,13.413 25.939,13.384 25.478,13.455 C24.898,13.543 24.334,13.788 23.848,14.105 C23.333,14.441 22.871,14.866 22.511,15.349 C22.343,15.574 22.198,15.813 22.078,16.063 C21.962,16.301 21.886,16.510 21.823,16.766 C21.747,17.087 21.726,17.528 21.808,17.844 ZM23.509,16.134 C23.563,16.023 23.627,15.915 23.701,15.816 C23.864,15.600 24.068,15.410 24.298,15.260 C24.516,15.118 24.768,15.009 25.026,14.970 C25.076,14.962 25.128,14.957 25.178,14.956 C25.336,14.952 25.495,14.979 25.626,15.056 C25.775,15.143 25.872,15.265 25.919,15.424 C25.963,15.575 25.957,15.737 25.927,15.893 C25.897,16.038 25.840,16.182 25.769,16.315 C25.694,16.454 25.602,16.587 25.495,16.706 C25.398,16.815 25.296,16.916 25.179,17.007 C25.077,17.088 24.969,17.161 24.849,17.224 C24.742,17.283 24.626,17.331 24.509,17.368 C24.397,17.402 24.284,17.423 24.169,17.429 C24.059,17.434 23.943,17.425 23.838,17.394 C23.737,17.363 23.648,17.312 23.571,17.243 C23.480,17.157 23.418,17.049 23.387,16.927 C23.351,16.788 23.360,16.591 23.393,16.448 C23.420,16.334 23.457,16.240 23.509,16.134 Z" class="cls-1"/>
</svg>
